<svg id="visual" viewBox="0 0 900 600" width="900" height="600" xmlns="http://www.w3.org/2000/svg" xmlns:xlink="http://www.w3.org/1999/xlink" version="1.1"><rect x="0" y="0" width="900" height="600" fill="#ffffff"></rect><path d="M0 366L21.5 374.5C43 383 86 400 128.8 399.5C171.7 399 214.3 381 257.2 381.5C300 382 343 401 385.8 413.5C428.7 426 471.3 432 514.2 428.3C557 424.7 600 411.3 642.8 397.7C685.7 384 728.3 370 771.2 367.7C814 365.3 857 374.7 878.5 379.3L900 384L900 601L878.5 601C857 601 814 601 771.2 601C728.3 601 685.7 601 642.8 601C600 601 557 601 514.2 601C471.3 601 428.7 601 385.8 601C343 601 300 601 257.2 601C214.3 601 171.7 601 128.8 601C86 601 43 601 21.5 601L0 601Z" fill="#fa7268"></path><path d="M0 475L21.5 471C43 467 86 459 128.8 450.5C171.7 442 214.3 433 257.2 424.3C300 415.7 343 407.3 385.8 403.2C428.7 399 471.3 399 514.2 407C557 415 600 431 642.8 434.3C685.7 437.7 728.3 428.3 771.2 430.2C814 432 857 445 878.5 451.5L900 458L900 601L878.5 601C857 601 814 601 771.2 601C728.3 601 685.7 601 642.8 601C600 601 557 601 514.2 601C471.3 601 428.7 601 385.8 601C343 601 300 601 257.2 601C214.3 601 171.7 601 128.8 601C86 601 43 601 21.5 601L0 601Z" fill="#ef5f67"></path><path d="M0 475L21.5 472.2C43 469.3 86 463.7 128.8 466.2C171.7 468.7 214.3 479.3 257.2 477.5C300 475.7 343 461.3 385.8 458C428.7 454.7 471.3 462.3 514.2 464.2C557 466 600 462 642.8 461.7C685.7 461.3 728.3 464.7 771.2 466.5C814 468.3 857 468.7 878.5 468.8L900 469L900 601L878.5 601C857 601 814 601 771.2 601C728.3 601 685.7 601 642.8 601C600 601 557 601 514.2 601C471.3 601 428.7 601 385.8 601C343 601 300 601 257.2 601C214.3 601 171.7 601 128.8 601C86 601 43 601 21.5 601L0 601Z" fill="#e34c67"></path><path d="M0 540L21.5 537.7C43 535.3 86 530.7 128.8 526.2C171.7 521.7 214.3 517.3 257.2 514.2C300 511 343 509 385.8 510.2C428.7 511.3 471.3 515.7 514.2 518.3C557 521 600 522 642.8 524.8C685.7 527.7 728.3 532.3 771.2 529.2C814 526 857 515 878.5 509.5L900 504L900 601L878.5 601C857 601 814 601 771.2 601C728.3 601 685.7 601 642.8 601C600 601 557 601 514.2 601C471.3 601 428.7 601 385.8 601C343 601 300 601 257.2 601C214.3 601 171.7 601 128.8 601C86 601 43 601 21.5 601L0 601Z" fill="#d53867"></path><path d="M0 548L21.5 547C43 546 86 544 128.8 540.3C171.7 536.7 214.3 531.3 257.2 529.2C300 527 343 528 385.8 533C428.7 538 471.3 547 514.2 546.2C557 545.3 600 534.7 642.8 530.5C685.7 526.3 728.3 528.7 771.2 536C814 543.3 857 555.7 878.5 561.8L900 568L900 601L878.5 601C857 601 814 601 771.2 601C728.3 601 685.7 601 642.8 601C600 601 557 601 514.2 601C471.3 601 428.7 601 385.8 601C343 601 300 601 257.2 601C214.3 601 171.7 601 128.8 601C86 601 43 601 21.5 601L0 601Z" fill="#c62368"></path></svg>